<?xml version="1.0" standalone="no"?>
<!DOCTYPE svg PUBLIC "-//W3C//DTD SVG 20010904//EN"
 "http://www.w3.org/TR/2001/REC-SVG-20010904/DTD/svg10.dtd">
<svg version="1.0" xmlns="http://www.w3.org/2000/svg"
 width="580.000000pt" height="386.000000pt" viewBox="0 0 580.000000 386.000000"
 preserveAspectRatio="xMidYMid meet">

<g transform="translate(0.000000,386.000000) scale(0.100000,-0.100000)"
fill="#000000" stroke="none">
<path d="M2830 3379 c-100 -9 -204 -39 -243 -71 l-27 -23 55 -184 c31 -101 54
-185 53 -187 -2 -2 -33 55 -68 126 l-64 129 -35 -15 c-98 -41 -171 -120 -171
-185 0 -35 15 -56 165 -233 l164 -194 51 19 c37 14 77 19 153 19 l102 1 60 89
c33 48 61 87 63 85 2 -2 -13 -40 -32 -86 -20 -45 -36 -88 -36 -94 0 -14 99
-40 110 -29 103 114 314 365 321 382 18 46 10 97 -20 139 -31 43 -77 83 -95
83 -6 0 -25 -22 -43 -48 -42 -62 -98 -125 -83 -94 6 13 35 81 65 152 61 148
61 145 -36 180 -104 36 -265 52 -409 39z"/>
<path d="M2844 2490 c-11 -4 -55 -56 -98 -114 -43 -58 -80 -106 -83 -106 -3 0
6 19 20 43 68 117 89 159 83 165 -12 11 -115 -48 -205 -119 -103 -79 -310
-291 -402 -409 -255 -327 -397 -655 -399 -916 -1 -184 103 -393 234 -469 136
-79 526 -122 1021 -112 362 7 598 36 744 89 109 40 218 182 257 338 22 86 14
273 -15 383 -98 371 -438 860 -771 1109 -101 75 -210 129 -210 102 0 -3 11
-55 25 -116 14 -61 24 -113 22 -115 -2 -2 -31 55 -65 127 l-61 130 -38 -1
c-21 0 -47 -4 -59 -9z m96 -419 c5 -11 10 -40 10 -65 l0 -44 50 -11 c103 -22
175 -77 216 -166 28 -59 29 -76 9 -114 -16 -32 -33 -41 -79 -41 -43 0 -61 16
-86 75 -25 58 -44 81 -82 101 l-28 15 0 -149 0 -148 73 -23 c39 -13 91 -34
114 -47 155 -89 179 -323 47 -459 -48 -50 -102 -78 -181 -95 l-51 -11 -4 -76
c-4 -79 -21 -109 -56 -96 -27 10 -32 24 -32 99 l0 71 -57 13 c-32 7 -75 21
-96 32 -136 69 -222 244 -153 313 50 50 118 39 146 -24 47 -104 68 -138 99
-158 61 -41 61 -40 61 137 0 157 0 161 -22 169 -145 56 -166 67 -208 110 -53
54 -70 101 -70 197 1 146 83 239 243 274 l57 13 0 48 c0 26 3 54 6 63 9 23 61
21 74 -3z"/>
<path d="M2815 1806 c-108 -48 -111 -182 -6 -236 22 -11 43 -20 46 -20 3 0 5
61 5 135 0 74 -3 135 -7 135 -5 -1 -21 -7 -38 -14z"/>
<path d="M2950 1184 l0 -155 23 6 c50 16 90 49 109 92 38 85 3 157 -95 198
l-37 15 0 -156z"/>
</g>
</svg>
